<svg xmlns="http://www.w3.org/2000/svg" viewBox="0 0 119.98 119.93"><g id="b9a285d0-6c92-450c-beb5-841e32522212" data-name="Layer 2"><g id="f6f1b6d1-a5c3-438f-b8df-538bc51b7ec1" data-name="Layer 1"><path d="M37.09,114.37q-.93-.39-1.83-.81" fill="none" stroke="#004285" stroke-linejoin="round" stroke-width="2"></path><path d="M31.65,111.74a58.94,58.94,0,1,1,54.89.94" fill="none" stroke="#004285" stroke-linejoin="round" stroke-width="2" stroke-dasharray="4.05 4.05"></path><path d="M84.72,113.56q-.9.42-1.83.81" fill="none" stroke="#004285" stroke-linejoin="round" stroke-width="2"></path><path d="M85.29,103.69q.46-.89.87-1.8" fill="none" stroke="#004285" stroke-linejoin="round" stroke-width="2"></path><path d="M87.48,98.22a28.57,28.57,0,1,0-54.39,1.85" fill="none" stroke="#004285" stroke-linejoin="round" stroke-width="2" stroke-dasharray="3.91 3.91"></path><path d="M33.82,101.89q.41.92.87,1.8" fill="none" stroke="#004285" stroke-linejoin="round" stroke-width="2"></path><line x1="79.96" y1="85.74" x2="74.5" y2="89.48" fill="none" stroke="#f78223" stroke-linejoin="round" stroke-width="2"></line><line x1="71.01" y1="86.93" x2="75.45" y2="79.46" fill="none" stroke="#f78223" stroke-linejoin="round" stroke-width="2"></line><line x1="66.21" y1="85.38" x2="66.49" y2="78.38" fill="none" stroke="#f78223" stroke-linejoin="round" stroke-width="2"></line><path d="M75.29,103.62a15.29,15.29,0,1,1-3.69-10A15.3,15.3,0,0,1,75.29,103.62Z" fill="none" stroke="#f78223" stroke-linejoin="round" stroke-width="2"></path><path d="M75.29,103.62a15.29,15.29,0,1,1-3.69-10A15.3,15.3,0,0,1,75.29,103.62Z" fill="none" stroke="#f78223" stroke-linejoin="round" stroke-width="2"></path><path d="M56.1,106.89c0,1.77,1.74,3.21,3.89,3.21s3.89-1.44,3.89-3.21c0-3.76-7.78-2.8-7.78-6.44,0-1.78,1.74-3.22,3.89-3.22s3.89,1.44,3.89,3.22" fill="none" stroke="#f78223" stroke-linejoin="round" stroke-width="2"></path><line x1="59.99" y1="95.27" x2="59.99" y2="97.09" fill="none" stroke="#f78223" stroke-linejoin="round" stroke-width="2"></line><line x1="59.99" y1="110.16" x2="59.99" y2="111.99" fill="none" stroke="#f78223" stroke-linejoin="round" stroke-width="2"></line><path d="M28.5,104.94c-.47-.47-.93-1-1.38-1.45" fill="none" stroke="#004285" stroke-linejoin="round" stroke-width="2"></path><path d="M24.58,100.4a44.26,44.26,0,1,1,69.33,1.87" fill="none" stroke="#004285" stroke-linejoin="round" stroke-width="2" stroke-dasharray="4.01 4.01"></path><path d="M92.59,103.78c-.45.49-.92,1-1.39,1.44" fill="none" stroke="#004285" stroke-linejoin="round" stroke-width="2"></path></g></g></svg>