<svg xmlns="http://www.w3.org/2000/svg" viewBox="0 0 101 101"><g id="f32e809a-d696-471a-9a48-b34272cc1a11" data-name="Layer 2"><g id="ae9ae567-0108-4f14-9eea-c1fcf77ab45c" data-name="Layer 1"><circle cx="19" cy="19" r="18" fill="none" stroke="#f78223" stroke-linejoin="round" stroke-width="2"></circle><line x1="55.37" y1="73.37" x2="27.63" y2="45.63" fill="none" stroke="#f78223" stroke-linejoin="round" stroke-width="2"></line><line x1="58.23" y1="67.23" x2="33.77" y2="42.77" fill="none" stroke="#f78223" stroke-linejoin="round" stroke-width="2"></line><line x1="62.21" y1="62.21" x2="38.79" y2="38.79" fill="none" stroke="#f78223" stroke-linejoin="round" stroke-width="2"></line><line x1="73.37" y1="55.37" x2="45.63" y2="27.63" fill="none" stroke="#f78223" stroke-linejoin="round" stroke-width="2"></line><line x1="67.23" y1="58.23" x2="42.77" y2="33.77" fill="none" stroke="#f78223" stroke-linejoin="round" stroke-width="2"></line><path d="M100,82a18,18,0,1,1-36,0A18,18,0,0,1,82,64a18,18,0,0,1,18,18Z" fill="none" stroke="#004285" stroke-linejoin="round" stroke-width="2"></path><path d="M82,100a18,18,0,1,1,18-18A17.93,17.93,0,0,1,82,100Z" fill="none" stroke="#004285" stroke-linejoin="round" stroke-width="2"></path><path d="M100,82a18,18,0,1,1-36,0A18,18,0,0,1,82,64a18,18,0,0,1,18,18Z" fill="none" stroke="#004285" stroke-linejoin="round" stroke-width="2"></path><path d="M100,82a18,18,0,1,1-36,0A18,18,0,0,1,82,64a18,18,0,0,1,18,18Z" fill="none" stroke="#004285" stroke-linejoin="round" stroke-width="2"></path><path d="M77.67,84.68c0,2,1.94,3.58,4.33,3.58s4.33-1.6,4.33-3.58c0-4.19-8.66-3.12-8.66-7.17,0-2,1.94-3.59,4.33-3.59s4.33,1.61,4.33,3.59" fill="none" stroke="#f78223" stroke-linejoin="round" stroke-width="2"></path><line x1="82" y1="71.73" x2="82" y2="73.77" fill="none" stroke="#f78223" stroke-linejoin="round" stroke-width="2"></line><line x1="82" y1="88.32" x2="82" y2="90.36" fill="none" stroke="#f78223" stroke-linejoin="round" stroke-width="2"></line><polyline points="37 50.5 41.5 50.5 41.5 46" fill="none" stroke="#f78223" stroke-linejoin="round" stroke-width="2"></polyline><polyline points="46 50.5 50.5 50.5 50.5 46" fill="none" stroke="#f78223" stroke-linejoin="round" stroke-width="2"></polyline><polyline points="46 41.5 50.5 41.5 50.5 37" fill="none" stroke="#f78223" stroke-linejoin="round" stroke-width="2"></polyline><polyline points="46 59.5 50.5 59.5 50.5 55" fill="none" stroke="#f78223" stroke-linejoin="round" stroke-width="2"></polyline><polyline points="37 59.5 41.5 59.5 41.5 55" fill="none" stroke="#f78223" stroke-linejoin="round" stroke-width="2"></polyline><polyline points="55 59.5 59.5 59.5 59.5 55" fill="none" stroke="#f78223" stroke-linejoin="round" stroke-width="2"></polyline><polyline points="55 50.5 59.5 50.5 59.5 46" fill="none" stroke="#f78223" stroke-linejoin="round" stroke-width="2"></polyline><polyline points="55 41.5 59.5 41.5 59.5 37" fill="none" stroke="#f78223" stroke-linejoin="round" stroke-width="2"></polyline></g></g></svg>