<svg xmlns="http://www.w3.org/2000/svg" viewBox="0 0 134.92 116.44"><g id="aaa00167-9c15-4a43-bd98-145ef4df50ae" data-name="Layer 2"><g id="afee89db-72cf-4ff5-8daf-c10b7a6eb7ec" data-name="Layer 1"><polyline points="33.47 8.54 23.78 24.39 37.1 24.39 23.67 42.89" fill="none" stroke="#f78223" stroke-linejoin="round" stroke-width="2"></polyline><polyline points="8.81 70.08 65.39 31.88 90.5 31.88 125.92 1" fill="none" stroke="#f78223" stroke-linejoin="round" stroke-width="2"></polyline><polyline points="116.26 1 125.92 1 124.68 10" fill="none" stroke="#f78223" stroke-linejoin="round" stroke-width="2"></polyline><line y1="115.44" x2="134.92" y2="115.44" fill="none" stroke="#004285" stroke-linejoin="round" stroke-width="2"></line><polyline points="10.02 115.77 10.02 76.58 19.49 76.58 19.49 115.77" fill="none" stroke="#004285" stroke-linejoin="round" stroke-width="2"></polyline><polyline points="27.63 115.77 27.63 67.11 37.1 67.11 37.1 115.77" fill="none" stroke="#004285" stroke-linejoin="round" stroke-width="2"></polyline><polyline points="45.25 115.77 45.25 58.08 54.72 58.08 54.72 115.77" fill="none" stroke="#004285" stroke-linejoin="round" stroke-width="2"></polyline><polyline points="62.86 115.77 62.86 49.27 72.33 49.27 72.33 115.77" fill="none" stroke="#004285" stroke-linejoin="round" stroke-width="2"></polyline><polyline points="80.48 115.77 80.48 40.25 89.94 40.25 89.94 115.77" fill="none" stroke="#004285" stroke-linejoin="round" stroke-width="2"></polyline><polyline points="98.09 115.77 98.09 33.31 107.56 33.31 107.56 115.77" fill="none" stroke="#004285" stroke-linejoin="round" stroke-width="2"></polyline><polyline points="115.71 115.77 115.71 21.75 125.17 21.75 125.17 115.77" fill="none" stroke="#004285" stroke-linejoin="round" stroke-width="2"></polyline></g></g></svg>